HIERARCHY
ROOT Hips
{
	OFFSET 0.00000 0.00000 0.00000
	CHANNELS 6 Xposition Yposition Zposition Zrotation Yrotation Xrotation 
	JOINT LHipJoint
	{
		OFFSET 0 0 0
		CHANNELS 3 Zrotation Yrotation Xrotation
		JOINT LeftUpLeg
		{
			OFFSET 1.42489 -1.84941 0.69647
			CHANNELS 3 Zrotation Yrotation Xrotation
			JOINT LeftLeg
			{
				OFFSET 2.44443 -6.71602 0.00000
				CHANNELS 3 Zrotation Yrotation Xrotation
				JOINT LeftFoot
				{
					OFFSET 2.62838 -7.22137 0.00000
					CHANNELS 3 Zrotation Yrotation Xrotation
					JOINT LeftToeBase
					{
						OFFSET 0.24036 -0.66037 2.29953
						CHANNELS 3 Zrotation Yrotation Xrotation
						End Site
						{
							OFFSET 0.00000 -0.00000 1.19837
						}
					}
				}
			}
		}
	}
	JOINT RHipJoint
	{
		OFFSET 0 0 0
		CHANNELS 3 Zrotation Yrotation Xrotation
		JOINT RightUpLeg
		{
			OFFSET -1.37055 -1.84941 0.69647
			CHANNELS 3 Zrotation Yrotation Xrotation
			JOINT RightLeg
			{
				OFFSET -2.54834 -7.00152 0.00000
				CHANNELS 3 Zrotation Yrotation Xrotation
				JOINT RightFoot
				{
					OFFSET -2.65692 -7.29983 0.00000
					CHANNELS 3 Zrotation Yrotation Xrotation
					JOINT RightToeBase
					{
						OFFSET -0.18839 -0.51760 2.29390
						CHANNELS 3 Zrotation Yrotation Xrotation
						End Site
						{
							OFFSET -0.00000 -0.00000 1.18261
						}
					}
				}
			}
		}
	}
	JOINT LowerBack
	{
		OFFSET 0 0 0
		CHANNELS 3 Zrotation Yrotation Xrotation
		JOINT Spine
		{
			OFFSET 0.05220 2.15489 0.05011
			CHANNELS 3 Zrotation Yrotation Xrotation
			JOINT Spine1
			{
				OFFSET -0.07653 2.14219 -0.05668
				CHANNELS 3 Zrotation Yrotation Xrotation
				JOINT Neck
				{
					OFFSET 0 0 0
					CHANNELS 3 Zrotation Yrotation Xrotation
					JOINT Neck1
					{
						OFFSET 0.01370 1.58638 0.01447
						CHANNELS 3 Zrotation Yrotation Xrotation
						JOINT Head
						{
							OFFSET 0.23548 1.54190 -0.21747
							CHANNELS 3 Zrotation Yrotation Xrotation
							End Site
							{
								OFFSET 0.07132 1.59823 -0.08163
							}
						}
					}
				}
				JOINT LeftShoulder
				{
					OFFSET 0 0 0
					CHANNELS 3 Zrotation Yrotation Xrotation
					JOINT LeftArm
					{
						OFFSET 3.47056 1.45357 -0.58896
						CHANNELS 3 Zrotation Yrotation Xrotation
						JOINT LeftForeArm
						{
							OFFSET 5.19069 -0.00000 0.00000
							CHANNELS 3 Zrotation Yrotation Xrotation
							JOINT LeftHand
							{
								OFFSET 3.30016 -0.00000 0.00000
								CHANNELS 3 Zrotation Yrotation Xrotation
								JOINT LeftFingerBase
								{
									OFFSET 0 0 0
									CHANNELS 3 Zrotation Yrotation Xrotation
									JOINT LeftHandIndex1
									{
										OFFSET 0.70770 -0.00000 0.00000
										CHANNELS 3 Zrotation Yrotation Xrotation
										End Site
										{
											OFFSET 0.57056 -0.00000 0.00000
										}
									}
								}
								JOINT LThumb
								{
									OFFSET 0 0 0
									CHANNELS 3 Zrotation Yrotation Xrotation
									End Site
									{
										OFFSET 0.57928 -0.00000 0.57928
									}
								}
							}
						}
					}
				}
				JOINT RightShoulder
				{
					OFFSET 0 0 0
					CHANNELS 3 Zrotation Yrotation Xrotation
					JOINT RightArm
					{
						OFFSET -2.89018 2.03305 -0.26731
						CHANNELS 3 Zrotation Yrotation Xrotation
						JOINT RightForeArm
						{
							OFFSET -5.23924 -0.00000 0.00000
							CHANNELS 3 Zrotation Yrotation Xrotation
							JOINT RightHand
							{
								OFFSET -3.32953 -0.00000 0.00000
								CHANNELS 3 Zrotation Yrotation Xrotation
								JOINT RightFingerBase
								{
									OFFSET 0 0 0
									CHANNELS 3 Zrotation Yrotation Xrotation
									JOINT RightHandIndex1
									{
										OFFSET -0.60741 -0.00000 0.00000
										CHANNELS 3 Zrotation Yrotation Xrotation
										End Site
										{
											OFFSET -0.48971 -0.00000 0.00000
										}
									}
								}
								JOINT RThumb
								{
									OFFSET 0 0 0
									CHANNELS 3 Zrotation Yrotation Xrotation
									End Site
									{
										OFFSET -0.49719 -0.00000 0.49719
									}
								}
							}
						}
					}
				}
			}
		}
	}
}
MOTION
Frames: 10
Frame Time: 0.111111
0.00 0.00 0.00 0 0 0 0 0 0 -21 0 0 0 0 0 0 0 0 0 0 0 0 0 0 21 0 0 0 0 0 0 0 0 0 0 0 0 0 0 0 0 0 0 0 0 0 0 -16 0 0 21 0 0 11 0 0 0 -8 0 0 0 0 0 0 0 0 0 0 0 0 0 0 0 0 0 0 0 0 8 0 0 0 0 0 0 0 0 0 0 0 0 0 0 0 0 0
0.00 0.00 0.00 -1.6845 -7.0880 4.5278 0.0000 0.0000 0.0000 -22.2831 7.9683 -5.6981 0.8934 6.0245 16.8556 1.2014 -3.6869 -19.8251 0.0111 -0.6789 -1.8658 0.0000 0.0000 0.0000 18.0603 8.6600 -15.8886 -5.2159 -13.6229 41.7472 -1.2272 1.3880 -20.5321 -0.9840 6.3139 -17.6981 1.5889 0.1835 -5.1999 -1.1283 0.1836 1.9394 -2.0449 0.1598 4.9368 -2.2628 -2.5537 -9.6886 9.0442 -4.0102 7.5214 2.8867 -1.5686 4.0700 -0.0000 0.0000 0.0000 -84.0222 -1.9429 30.9623 11.4846 -19.0273 -1.9310 -0.0000 0.0000 -0.7232 4.8098 -2.3017 -0.1936 -7.1250 0.0000 -0.0000 -16.5885 27.5287 7.3314 -0.0000 0.0000 0.0000 89.9272 3.3801 21.1348 -12.4677 20.5023 -2.2634 0.0000 0.0000 1.1964 -11.4190 -8.9481 1.7994 7.1250 -0.0000 -0.0000 13.3532 -38.7721 2.0927
0.00 0.00 0.00 -1.3344 -7.9728 3.1586 0.0000 0.0000 0.0000 -24.0104 12.4035 6.4337 0.0048 0.4453 1.2236 0.6526 -0.8516 -14.9944 0.0014 -0.2376 -0.6527 0.0000 0.0000 0.0000 18.5015 16.1229 -29.7195 -3.3722 -11.2745 33.2114 -0.6718 -1.5882 -16.1370 -0.4526 4.3159 -11.9671 0.4955 -0.2116 -2.6584 -1.4651 -0.2526 2.4731 -1.8043 -0.0891 4.0298 -2.0597 -2.2309 -9.0932 8.6293 -3.4938 6.6267 2.7634 -1.3682 3.6576 0.0000 -0.0000 0.0000 -84.2037 -3.3472 31.9751 11.1246 -18.4790 -1.8152 -0.0000 0.0000 -0.3966 5.3199 -2.6868 -0.2501 -7.1250 0.0000 -0.0000 -16.1542 27.1631 7.2697 0.0000 -0.0000 0.0000 91.3407 1.1954 19.6932 -11.7027 19.3572 -2.0026 0.0000 0.0000 2.0811 -11.5518 -9.0210 1.8356 7.1250 -0.0000 -0.0000 13.2568 -38.8541 2.0496
0.00 0.00 0.00 -0.3428 1.4596 2.5931 0.0000 0.0000 0.0000 -18.3739 11.2554 7.8853 1.8351 8.5138 24.2860 0.0610 0.5158 -4.8827 1.5218 -7.7894 -22.0763 0.0000 0.0000 0.0000 20.9630 7.3730 -22.5969 -2.9275 -10.5768 30.8655 -0.6038 -1.6339 -15.3598 -0.0034 -0.3766 1.0347 2.2985 -0.6426 -3.5996 -0.9942 -0.9415 1.6814 -2.3785 -0.3997 3.6990 -3.8843 -4.0625 -9.3929 8.4929 -5.8272 8.3226 2.8548 -2.5274 4.3967 -0.0000 -0.0000 0.0000 -85.8701 0.4076 25.9428 11.2427 -18.6593 -1.8528 -0.0000 -0.0000 0.4181 5.6759 -3.3386 -0.3316 -7.1250 0.0000 -0.0000 -15.8016 26.5360 7.3420 -0.0000 -0.0000 0.0000 90.7389 1.3960 19.6354 -11.5633 19.1465 -1.9567 0.0000 0.0000 2.6595 -11.2267 -9.3514 1.8473 7.1250 -0.0000 -0.0000 13.6040 -39.1565 2.0022
0.00 0.00 0.00 -1.2303 2.7966 1.8547 0.0000 0.0000 0.0000 -15.6472 9.6079 0.1303 4.9858 13.3678 40.7614 0.0101 3.8827 3.1341 0.7789 -5.6347 -15.7282 0.0000 0.0000 0.0000 23.2020 4.5822 -18.9321 -2.6030 -10.0228 29.0506 -0.7534 -0.4504 -16.5714 -0.0372 -1.2446 3.4220 3.3707 -0.5730 -3.5826 -0.7664 -0.9108 1.6486 -2.7433 -0.3626 3.6469 -4.2347 -4.4879 -9.3302 8.8113 -6.4564 9.1803 2.9608 -2.8127 4.7108 -0.0000 -0.0000 0.0000 -85.6686 1.0507 23.9930 11.7559 -19.4375 -2.0203 -0.0000 0.0000 -0.4587 6.0404 -3.0662 -0.3243 -7.1250 0.0000 -0.0000 -15.5676 26.8017 7.1240 -0.0000 -0.0000 0.0000 90.5895 1.8819 20.7568 -11.9142 19.6758 -2.0733 0.0000 0.0000 1.6848 -11.6049 -9.1402 1.8684 7.1250 -0.0000 -0.0000 13.2377 -38.9762 2.0059
0.00 0.00 0.00 -2.8185 3.5692 0.7985 0.0000 0.0000 0.0000 -12.6985 5.3146 -9.6182 9.6570 17.2124 58.3358 0.1775 8.4031 8.9203 0.1061 -2.1003 -5.7829 0.0000 0.0000 0.0000 26.1779 1.0915 -14.9012 -2.2200 -9.3101 26.7702 -0.8937 1.2027 -17.5004 -0.0649 -1.6436 4.5217 5.3663 -0.2545 -2.8250 -0.4535 -0.5586 1.8484 -3.5126 -0.1448 3.4435 -4.6884 -4.9210 -8.8904 9.4720 -7.0477 8.8908 3.2031 -3.0982 4.6294 0.0000 0.0000 0.0000 -85.3372 0.7639 22.3744 11.8069 -19.5144 -2.0373 -0.0000 -0.0000 0.0362 7.0825 -2.8213 -0.3504 -7.1250 0.0000 -0.0000 -14.8240 27.0452 6.6725 0.0000 0.0000 0.0000 90.0257 3.1991 23.4111 -12.6326 20.7465 -2.3215 0.0000 0.0000 0.3536 -12.1271 -9.1485 1.9567 7.1250 -0.0000 -0.0000 12.7977 -39.0239 1.9213
0.00 0.00 0.00 -3.2474 2.9806 0.1534 0.0000 0.0000 0.0000 -12.9320 -0.3158 -18.2211 10.8854 17.8785 62.4088 0.0147 3.6654 -5.8511 0.4332 -4.2235 -11.7062 0.0000 0.0000 0.0000 27.4436 -1.7674 -11.9891 -2.2039 -9.2785 26.6705 -1.1251 3.6907 -19.1609 -0.0551 -1.5150 4.1671 6.1866 0.2843 -2.2072 -0.5567 0.1640 2.0670 -4.0410 0.2402 3.4021 -4.9562 -5.2191 -8.6692 9.9750 -7.4905 8.9921 3.3721 -3.2998 4.6860 -0.0000 -0.0000 0.0000 -85.0151 0.7367 22.4852 11.6524 -19.2813 -1.9860 -0.0000 -0.0000 0.2580 6.8088 -2.8312 -0.3379 -7.1250 0.0000 -0.0000 -15.0269 27.0342 6.7741 -0.0000 -0.0000 0.0000 89.6027 5.5039 25.1866 -12.7457 20.9135 -2.3617 0.0000 0.0000 0.1893 -11.8171 -9.3141 1.9394 7.1250 -0.0000 -0.0000 13.0960 -39.1649 1.9215
0.00 0.00 0.00 -3.7489 1.3365 0.9271 0.0000 0.0000 0.0000 -14.1646 -5.2243 -25.6045 6.6355 15.0171 47.4817 0.6740 4.4058 -17.7301 0.6330 -5.0907 -14.1673 0.0000 0.0000 0.0000 28.3542 -4.8507 -10.4624 -2.3214 -9.5058 27.3906 -1.2805 6.9304 -20.2243 -0.0568 -1.5375 4.2292 7.1402 0.9094 -2.1558 -0.6949 0.9798 1.7979 -4.6814 0.6575 3.2129 -5.0552 -5.2249 -8.8765 10.1423 -7.5018 9.0205 3.4345 -3.2925 4.7411 -0.0000 -0.0000 0.0000 -85.3910 1.6950 22.7219 11.7341 -19.4047 -2.0131 -0.0000 0.0000 -0.1057 6.0929 -3.1567 -0.3368 -7.1250 0.0000 -0.0000 -15.5169 26.7143 7.1322 -0.0000 -0.0000 0.0000 89.7230 6.2006 27.5078 -13.7843 22.4256 -2.7453 0.0000 -0.0000 -1.1274 -11.9425 -9.1260 1.9213 7.1250 -0.0000 -0.0000 12.9492 -38.9876 1.9567
0.00 0.00 0.00 -3.7982 -5.9325 3.7390 0.0000 0.0000 0.0000 -20.1345 1.8532 -18.9077 1.0116 6.3995 17.9482 0.1646 0.6625 -7.9329 0.0004 0.1287 0.3537 0.0000 0.0000 0.0000 23.4349 -5.2613 5.0799 -2.8033 -10.3695 30.1819 0.0256 4.3885 -1.9649 -0.2320 3.1001 -8.5576 5.8524 1.2353 -5.8278 -1.3706 1.2694 1.2941 -4.5972 0.8166 4.7875 -3.4621 -3.4065 -9.8806 9.7400 -5.2113 9.2529 3.2122 -2.1064 4.7503 0.0000 -0.0000 0.0000 -85.0677 0.8246 19.3312 9.6334 -16.1641 -1.3711 -0.0000 -0.0000 3.7109 5.8905 -3.6990 -0.3814 -7.1250 0.0000 -0.0000 -15.5963 26.1881 7.3721 0.0000 -0.0000 0.0000 91.4651 0.4326 27.6672 -13.6527 22.2361 -2.6953 0.0000 -0.0000 -0.6834 -11.8429 -8.9215 1.8626 7.1250 -0.0000 -0.0000 12.9898 -38.7771 2.0318
0.00 0.00 0.00 -2.5228 -6.7059 3.3305 0.0000 0.0000 0.0000 -22.4621 4.9600 -14.5592 0.6985 5.3422 14.8871 0.2317 -0.9009 -8.8187 0.0196 0.9030 2.4819 0.0000 0.0000 0.0000 20.3126 -3.1182 -1.3116 -6.0002 -14.4286 44.9826 -0.1265 -0.6514 6.5162 -0.0043 -0.4246 1.1666 4.1147 0.9943 -5.5492 -1.5401 1.0981 1.2172 -3.8113 0.6763 4.4898 -3.2627 -3.0508 -10.2589 9.5619 -4.7926 9.9661 3.1538 -1.8763 4.9948 -0.0000 0.0000 0.0000 -84.5088 0.2171 22.1537 10.9303 -18.1813 -1.7541 -0.0000 -0.0000 1.1574 6.0599 -3.5801 -0.3798 -7.1250 0.0000 -0.0000 -15.4864 26.3038 7.2726 -0.0000 0.0000 0.0000 91.0226 0.2229 26.3441 -13.6809 22.2767 -2.7060 0.0000 -0.0000 -0.3078 -11.6078 -8.7108 1.7819 7.1250 -0.0000 -0.0000 13.1432 -38.5507 2.1315
